<?xml-stylesheet type="text/css" href="/../../../build/css/style.css"?>
<svg xmlns="http://www.w3.org/2000/svg" xmlns:xlink="http://www.w3.org/1999/xlink" preserveAspectRatio="xMidYMid" width="175" height="189" viewBox="0 0 175 189">
  <defs>
    <style>
      .think-cls-1, .think-cls-2 {
        fill: #fff;
        fill-rule: evenodd;
      }

      .think-cls-1 {
        stroke: #fff;
        stroke-linejoin: round;
        stroke-width: 4px;
        fill-opacity: 0.1;
      }
    </style>
  </defs>
  <g>
    <path d="m67.378998,179.804993c-13.413998,-8.056 -26.962997,-15.878998 -40.647999,-23.467987c-13.684999,-7.587006 -20.391005,-19.20401 -20.120005,-34.849007c0.271,-15.645996 0.271,-31.292 0,-46.936996c-0.271001,-15.645004 6.434999,-27.262001 20.120005,-34.850002c13.684998,-7.588001 27.233997,-15.410999 40.647999,-23.468c13.413994,-8.057 26.827995,-8.057 40.241997,0c13.413002,8.057001 26.963005,15.879999 40.648003,23.468c13.684006,7.588001 20.391006,19.204998 20.12001,34.850002c-0.271011,15.644997 -0.271011,31.291 0,46.936996c0.270996,15.644997 -6.436005,27.262001 -20.12001,34.849007c-13.684998,7.588989 -27.235001,15.411987 -40.648003,23.467987c-13.414001,8.058014 -26.828003,8.058014 -40.241997,0z" class="think-cls-1" id="svg_7"/>
    <path d="m80.784996,110.938004c-2.130005,0 -4.207001,-0.165001 -6.220001,-0.461006c-1.377998,1.679001 -7.311996,7.466003 -13.609997,8.497002c0.007004,-0.025002 -0.324997,0.025002 -0.514,0.025002c-1.009998,0 -1.827,-0.816002 -1.827,-1.826004c0,-0.255997 0.055,-0.5 0.150002,-0.719994c0,0 -0.002003,0 -0.004002,0c1.187004,-2.042999 3.885006,-5.931999 3.885006,-9.546005c0,-0.058998 0.015991,-0.095001 0.015991,-0.149994c-8.521996,-4.353004 -14.123997,-11.687004 -14.123997,-20.005005c0,-13.357002 14.437,-24.185997 32.247997,-24.185997c17.807999,0 32.248001,10.828995 32.248001,24.185997c0,13.356003 -14.440002,24.186005 -32.248001,24.186005zm0,-44.341003c-15.558998,0 -28.216999,9.042 -28.216999,20.154999c0,6.464005 4.458,12.600998 11.926998,16.415001c1.348999,0.689003 2.196999,2.077003 2.196999,3.590004c0,0.112 -0.005997,0.241997 -0.017998,0.371994c-0.041,2.083 -0.656998,4.106003 -1.442001,5.909004c2.901001,-1.726006 5.355003,-4.066002 6.217003,-5.118004c0.771996,-0.939995 1.918999,-1.473999 3.115997,-1.473999c0.193001,0 0.389999,0.014 0.584999,0.043999c1.890999,0.277 3.786003,0.417 5.635002,0.417c15.558998,0 28.216995,-9.042 28.216995,-20.154999c0,-11.112999 -12.657997,-20.154999 -28.216995,-20.154999zm0,8.061996c-10.737,0 -20.154995,5.651001 -20.154995,12.093002c0,0.556999 -0.451004,1.007004 -1.008003,1.007004c-0.556999,0 -1.007999,-0.450005 -1.007999,-1.007004c0,-7.646996 10.153,-14.108002 22.170998,-14.108002c0.556999,0 1.007996,0.450005 1.007996,1.007004c0,0.556999 -0.450996,1.007996 -1.007996,1.007996z" class="think-cls-2" id="svg_8"/>
   </g>
</svg>
