<svg xmlns="http://www.w3.org/2000/svg" xmlns:xlink="http://www.w3.org/1999/xlink" preserveAspectRatio="xMidYMid" width="175" height="189" viewBox="0 0 175 189">
  <defs>
    <style>
      .cls-1, .cls-2 {
        fill: #fff;
        fill-rule: evenodd;
      }

      .cls-1 {
        stroke: #fff;
        stroke-linejoin: round;
        stroke-width: 4px;
        fill-opacity: 0.1;
      }
    </style>
  </defs>
  <g>
    <path d="M71.842,180.805 C58.428,172.749 44.879,164.926 31.194,157.337 C17.509,149.750 10.803,138.133 11.074,122.488 C11.345,106.842 11.345,91.196 11.074,75.551 C10.803,59.906 17.509,48.289 31.194,40.701 C44.879,33.113 58.428,25.290 71.842,17.233 C85.256,9.176 98.670,9.176 112.084,17.233 C125.497,25.290 139.047,33.113 152.732,40.701 C166.416,48.289 173.123,59.906 172.852,75.551 C172.581,91.196 172.581,106.842 172.852,122.488 C173.123,138.133 166.416,149.750 152.732,157.337 C139.047,164.926 125.497,172.749 112.084,180.805 C98.670,188.863 85.256,188.863 71.842,180.805 Z" class="cls-1"/>
    <path d="M85.248,111.938 C83.118,111.938 81.041,111.773 79.028,111.477 C77.650,113.156 71.716,118.943 65.418,119.974 C65.425,119.949 65.093,119.999 64.904,119.999 C63.894,119.999 63.077,119.183 63.077,118.173 C63.077,117.917 63.132,117.673 63.227,117.453 C63.227,117.453 63.225,117.453 63.223,117.453 C64.410,115.410 67.108,111.521 67.108,107.907 C67.108,107.848 67.124,107.812 67.124,107.757 C58.602,103.404 53.000,96.070 53.000,87.752 C53.000,74.395 67.437,63.566 85.248,63.566 C103.056,63.566 117.496,74.395 117.496,87.752 C117.496,101.108 103.056,111.938 85.248,111.938 ZM85.248,67.597 C69.689,67.597 57.031,76.639 57.031,87.752 C57.031,94.216 61.489,100.353 68.958,104.167 C70.307,104.856 71.155,106.244 71.155,107.757 C71.155,107.869 71.149,107.999 71.137,108.129 C71.096,110.212 70.480,112.235 69.695,114.038 C72.596,112.312 75.050,109.972 75.912,108.920 C76.684,107.980 77.831,107.446 79.028,107.446 C79.221,107.446 79.418,107.460 79.613,107.490 C81.504,107.767 83.399,107.907 85.248,107.907 C100.807,107.907 113.465,98.865 113.465,87.752 C113.465,76.639 100.807,67.597 85.248,67.597 ZM85.248,75.659 C74.511,75.659 65.093,81.310 65.093,87.752 C65.093,88.309 64.642,88.759 64.085,88.759 C63.528,88.759 63.077,88.309 63.077,87.752 C63.077,80.105 73.230,73.644 85.248,73.644 C85.805,73.644 86.256,74.094 86.256,74.651 C86.256,75.208 85.805,75.659 85.248,75.659 Z" class="cls-2"/>
  </g>
</svg>
