<?xml-stylesheet type="text/css" href="/../../../build/css/style.css"?>
<svg xmlns="http://www.w3.org/2000/svg" xmlns:xlink="http://www.w3.org/1999/xlink" preserveAspectRatio="xMidYMid" width="180" height="194" viewBox="0 0 180 194">
  <defs>
    <style>
      .feature-cls-1 {
        fill: #fff;
        stroke: #ccd0d2;
        stroke-linejoin: round;
        stroke-width: 4px;
        fill-opacity: 0.1;
      }

      .feature-cls-1, .feature-cls-2 {
        fill-rule: evenodd;
      }

      .feature-cls-2 {
        fill: #d1d5d7;
      }
    </style>
  </defs>
  <g>
    <path id="svg_2" class="feature-cls-1" d="m69.767998,185.757004c-13.487999,-8.10202 -27.112,-15.968002 -40.871998,-23.598007c-13.76,-7.62999 -20.504002,-19.310013 -20.232,-35.043007c0.273001,-15.731003 0.273001,-31.462997 0,-47.194c-0.271999,-15.731987 6.472002,-27.412998 20.232,-35.042999c13.759998,-7.630001 27.383999,-15.495001 40.871998,-23.597c13.487999,-8.103 26.975998,-8.103 40.464005,0c13.487999,8.101999 27.111992,15.966999 40.872002,23.597c13.759979,7.630001 20.503998,19.310997 20.231979,35.042999c-0.27298,15.731003 -0.27298,31.463013 0,47.194c0.272003,15.732994 -6.472,27.413017 -20.231979,35.043007c-13.76001,7.62999 -27.384003,15.495987 -40.872002,23.598007c-13.488014,8.100998 -26.976013,8.100998 -40.464005,0z"/>
    <path fill="black" id="svg_3" class="feature-cls-2" d="m113.071999,76.611l-2.313995,-6.962997c-0.519005,-1.555 -1.973,-2.604004 -3.614014,-2.604004l-34.287987,0c-1.639999,0 -3.095001,1.049004 -3.613998,2.604004l-2.333,6.966995c-1.988014,0.127998 -3.577003,1.743004 -3.577003,3.763l0,5.715004c0,2.103996 1.706001,3.808998 3.809998,3.808998l1.970001,0c0,0.143997 -0.057999,0.277 -0.041,0.419998l3.808998,34.288002c0.214005,1.929001 1.844002,3.389 3.786003,3.389l26.667999,0c1.942001,0 3.571999,-1.459999 3.786003,-3.389l3.808998,-34.288002c0.016998,-0.142998 -0.041,-0.276001 -0.041,-0.419998l1.970001,0c2.103996,0 3.809998,-1.705002 3.809998,-3.808998l0,-5.715004c0,-2.027 -1.598,-3.650002 -3.596001,-3.766998zm-40.215996,-5.758003l34.287987,0l1.905014,5.715004l-38.098,0l1.904999,-5.715004zm3.809998,53.337013l-0.634003,-5.714996l27.937004,0l-0.635002,5.714996l-26.667999,0zm27.514999,-7.620003l-28.361,0l-2.116997,-19.047997l32.595001,0l-2.117004,19.047997zm2.329002,-20.952995l-33.019005,0l-0.634987,-5.715004l34.287987,0l-0.633995,5.715004zm6.348,-9.523994l-45.716003,0l0,-5.714996l45.716003,0l0,5.714996z"/>
  </g>
</svg>
