<?xml-stylesheet type="text/css" href="/../../../build/css/style.css"?>
<svg xmlns="http://www.w3.org/2000/svg" xmlns:xlink="http://www.w3.org/1999/xlink" preserveAspectRatio="xMidYMid" width="180" height="194" viewBox="0 0 180 194">
  <defs>
    <style>
      .feature-cls-1 {
        fill: #fff;
        stroke: #ccd0d2;
        stroke-linejoin: round;
        stroke-width: 4px;
        fill-opacity: 0.1;
      }

      .feature-cls-1, .feature-cls-2 {
        fill-rule: evenodd;
      }

      .feature-cls-2 {
        fill: #d1d5d7;
      }
    </style>
  </defs>
  <g>
    <path d="M76.238,185.757 C62.750,177.655 49.126,169.789 35.366,162.159 C21.606,154.529 14.862,142.849 15.134,127.116 C15.407,111.385 15.407,95.653 15.134,79.922 C14.862,64.190 21.606,52.509 35.366,44.879 C49.126,37.249 62.750,29.384 76.238,21.282 C89.726,13.179 103.214,13.179 116.702,21.282 C130.190,29.384 143.814,37.249 157.574,44.879 C171.334,52.509 178.078,64.190 177.806,79.922 C177.533,95.653 177.533,111.385 177.806,127.116 C178.078,142.849 171.334,154.529 157.574,162.159 C143.814,169.789 130.190,177.655 116.702,185.757 C103.214,193.858 89.726,193.858 76.238,185.757 Z" class="feature-cls-1"/>
    <path d="M112.740,76.611 L110.426,69.648 C109.907,68.093 108.453,67.044 106.812,67.044 L72.524,67.044 C70.884,67.044 69.429,68.093 68.910,69.648 L66.577,76.615 C64.589,76.743 63.000,78.358 63.000,80.378 L63.000,86.093 C63.000,88.197 64.706,89.902 66.810,89.902 L68.780,89.902 C68.780,90.046 68.722,90.179 68.739,90.322 L72.548,124.610 C72.762,126.539 74.392,127.999 76.334,127.999 L103.002,127.999 C104.944,127.999 106.574,126.539 106.788,124.610 L110.597,90.322 C110.614,90.179 110.556,90.046 110.556,89.902 L112.526,89.902 C114.630,89.902 116.336,88.197 116.336,86.093 L116.336,80.378 C116.336,78.351 114.738,76.728 112.740,76.611 ZM72.524,70.853 L106.812,70.853 L108.717,76.568 L70.619,76.568 L72.524,70.853 ZM76.334,124.190 L75.700,118.475 L103.637,118.475 L103.002,124.190 L76.334,124.190 ZM103.849,116.570 L75.488,116.570 L73.371,97.522 L105.966,97.522 L103.849,116.570 ZM106.178,95.617 L73.159,95.617 L72.524,89.902 L106.812,89.902 L106.178,95.617 ZM112.526,86.093 L66.810,86.093 L66.810,80.378 L112.526,80.378 L112.526,86.093 Z" class="feature-cls-2"/>
  </g>
</svg>
