<?xml-stylesheet type="text/css" href="/../../../build/css/style.css"?>
<svg xmlns="http://www.w3.org/2000/svg" xmlns:xlink="http://www.w3.org/1999/xlink" preserveAspectRatio="xMidYMid" width="180" height="194" viewBox="0 0 180 194">
  <defs>
    <style>
      .feature-cls-1 {
           fill: #fff;
           stroke: #ccd0d2;
           stroke-linejoin: round;
           stroke-width: 4px;
           fill-opacity: 0.1;
      }

       .feature-cls-2 {
          fill-rule: evenodd;
       }
        .feature-cls-2 {
           fill: #d1d5d7;
         }
    </style>
  </defs>
  <g>
    <path id="svg_4" class="feature-cls-1" d="m69.767998,185.757004c-13.487999,-8.102005 -27.112,-15.968002 -40.872,-23.598007c-13.76,-7.62999 -20.504,-19.309998 -20.232,-35.042999c0.273001,-15.730995 0.273001,-31.462997 0,-47.194c-0.271999,-15.731995 6.472,-27.412998 20.232,-35.042995c13.76,-7.630001 27.384001,-15.495001 40.872,-23.597002c13.487999,-8.103 26.976006,-8.103 40.464005,0c13.487999,8.102001 27.111992,15.967001 40.872002,23.597002c13.759995,7.629997 20.503998,19.311001 20.231995,35.042995c-0.272995,15.731003 -0.272995,31.463005 0,47.194c0.272003,15.733002 -6.472,27.41301 -20.231995,35.042999c-13.76001,7.630005 -27.384003,15.496002 -40.872002,23.598007c-13.487999,8.100998 -26.976006,8.100998 -40.464005,0z"/>
    <path fill="black" id="svg_5" class="feature-cls-2" d="m129.688416,82.369003l-13.079994,-13.083c-0.965996,-0.965004 -2.276001,-1.508003 -3.640999,-1.508003l-45.932999,0c-1.364998,0 -2.675003,0.542999 -3.641006,1.508003l-13.079998,13.083c-1.011002,1.008995 -1.515995,2.340996 -1.510998,3.673996c0.006996,1.209999 0.440002,2.418999 1.302002,3.389l36.045998,38.387001c0.978004,1.098007 2.377998,1.727005 3.848999,1.727005c1.471001,0 2.872002,-0.628998 3.850006,-1.727005l36.047989,-38.387001c0.880005,-0.989998 1.311996,-2.233002 1.300003,-3.469002c-0.01001,-1.306 -0.518005,-2.602997 -1.509003,-3.593994zm-33.972992,3.432999l-11.431,0l5.714996,-4.763l5.716003,4.763zm-3.704002,-6.438004l7.038002,-5.865997l5.195,5.195l-6.519997,5.431l-5.713005,-4.760002zm-9.736,4.760002l-6.519997,-5.431l5.195,-5.195l7.038002,5.865997l-5.713005,4.760002zm14.136002,4.252998l-6.412003,32.062004l-6.411995,-32.062004l12.823997,0zm2.625,0l12.636002,0l-18.952003,31.589005l6.316002,-31.589005zm0.696999,-2.574997l6.339005,-5.280998l5.279999,5.280998l-11.619003,0zm2.386002,-12.874001l9.044998,0l-4.933998,4.111l-4.111,-4.111zm-12.120003,4.762001l-5.714996,-4.762001l11.431,0l-5.716003,4.762001zm-16.230995,-0.651001l-4.932999,-4.111l9.043999,0l-4.111,4.111zm0.158997,3.482002l6.337997,5.280998l-11.619003,0l5.281006,-5.280998zm7.035004,7.855995l6.317001,31.589005l-18.952003,-31.589005l12.635002,0zm0.550995,26.980003l-25.335999,-26.980003l9.150002,0l16.185997,26.980003zm33.158005,-26.980003l9.153,0l-25.341003,26.983002l16.188004,-26.983002zm0.321999,-2.574997l-6.934998,-6.936005l5.917,-4.93l11.862999,11.866005l-10.845001,0zm-48.976997,-11.872002l5.923996,4.935997l-6.934998,6.936005l-11.038006,0l12.049007,-11.872002z"/>
  </g>
</svg>
