<?xml-stylesheet type="text/css" href="/../../../build/css/style.css"?>
<svg xmlns="http://www.w3.org/2000/svg" xmlns:xlink="http://www.w3.org/1999/xlink" preserveAspectRatio="xMidYMid" width="180" height="194" viewBox="0 0 180 194">
  <defs>
    <style>
      .feature-cls-1 {
           fill: #fff;
           stroke: #ccd0d2;
           stroke-linejoin: round;
           stroke-width: 4px;
           fill-opacity: 0.1;
      }

       .feature-cls-2 {
          fill-rule: evenodd;
       }
        .feature-cls-2 {
           fill: #d1d5d7;
         }
    </style>
  </defs>
  <g>
    <path d="M76.240,185.757 C62.752,177.655 49.128,169.789 35.368,162.159 C21.608,154.529 14.864,142.849 15.136,127.116 C15.409,111.385 15.409,95.653 15.136,79.922 C14.864,64.190 21.608,52.509 35.368,44.879 C49.128,37.249 62.752,29.384 76.240,21.282 C89.728,13.179 103.216,13.179 116.704,21.282 C130.192,29.384 143.816,37.249 157.576,44.879 C171.336,52.509 178.080,64.190 177.808,79.922 C177.535,95.653 177.535,111.385 177.808,127.116 C178.080,142.849 171.336,154.529 157.576,162.159 C143.816,169.789 130.192,177.655 116.704,185.757 C103.216,193.858 89.728,193.858 76.240,185.757 Z" class="feature-cls-1"/>
    <path d="M130.166,82.369 L117.086,69.286 C116.120,68.321 114.810,67.778 113.445,67.778 L67.512,67.778 C66.147,67.778 64.837,68.321 63.871,69.286 L50.791,82.369 C49.780,83.378 49.275,84.710 49.280,86.043 C49.287,87.253 49.720,88.462 50.582,89.432 L86.628,127.819 C87.606,128.917 89.006,129.546 90.477,129.546 C91.948,129.546 93.349,128.917 94.327,127.819 L130.375,89.432 C131.255,88.442 131.687,87.199 131.675,85.963 C131.665,84.657 131.157,83.360 130.166,82.369 ZM96.193,85.802 L84.762,85.802 L90.477,81.039 L96.193,85.802 ZM92.489,79.364 L99.527,73.498 L104.722,78.693 L98.202,84.124 L92.489,79.364 ZM82.753,84.124 L76.233,78.693 L81.428,73.498 L88.466,79.364 L82.753,84.124 ZM96.889,88.377 L90.477,120.439 L84.065,88.377 L96.889,88.377 ZM99.514,88.377 L112.150,88.377 L93.198,119.966 L99.514,88.377 ZM100.211,85.802 L106.550,80.521 L111.830,85.802 L100.211,85.802 ZM102.597,72.928 L111.642,72.928 L106.708,77.039 L102.597,72.928 ZM90.477,77.690 L84.762,72.928 L96.193,72.928 L90.477,77.690 ZM74.246,77.039 L69.313,72.928 L78.357,72.928 L74.246,77.039 ZM74.405,80.521 L80.743,85.802 L69.124,85.802 L74.405,80.521 ZM81.440,88.377 L87.757,119.966 L68.805,88.377 L81.440,88.377 ZM81.991,115.357 L56.655,88.377 L65.805,88.377 L81.991,115.357 ZM115.149,88.377 L124.302,88.377 L98.961,115.360 L115.149,88.377 ZM115.471,85.802 L108.536,78.866 L114.453,73.936 L126.316,85.802 L115.471,85.802 ZM66.494,73.930 L72.418,78.866 L65.483,85.802 L54.445,85.802 L66.494,73.930 Z" class="feature-cls-2"/>
  </g>
</svg>
