<svg xmlns="http://www.w3.org/2000/svg" xmlns:xlink="http://www.w3.org/1999/xlink" preserveAspectRatio="xMidYMid" width="180" height="194" viewBox="0 0 180 194">
  <defs>
    <style>
      .cls-1 {
        fill: #fff;
        stroke: #a957a5;
        stroke-linejoin: round;
        stroke-width: 4px;
        fill-opacity: 0.1;
      }

      .cls-1, .cls-2 {
        fill-rule: evenodd;
      }

      .cls-2 {
        fill: #9f449b;
      }
    </style>
  </defs>
  <g>
    <path d="M76.240,185.757 C62.752,177.655 49.128,169.789 35.368,162.159 C21.608,154.529 14.864,142.849 15.136,127.116 C15.409,111.385 15.409,95.653 15.136,79.922 C14.864,64.190 21.608,52.509 35.368,44.879 C49.128,37.249 62.752,29.384 76.240,21.282 C89.728,13.179 103.216,13.179 116.704,21.282 C130.191,29.384 143.815,37.249 157.576,44.879 C171.336,52.509 178.080,64.190 177.808,79.922 C177.535,95.653 177.535,111.385 177.808,127.116 C178.080,142.849 171.336,154.529 157.576,162.159 C143.815,169.789 130.191,177.655 116.704,185.757 C103.216,193.858 89.728,193.858 76.240,185.757 Z" class="cls-1"/>
    <path d="M118.825,102.031 C118.559,102.295 94.519,126.068 94.519,126.068 C91.918,128.640 87.711,128.640 85.110,126.068 C85.110,126.068 63.156,104.357 60.804,102.031 C52.577,93.892 52.577,80.701 60.804,72.565 C68.789,64.667 81.545,64.501 89.814,71.932 C98.084,64.501 110.843,64.667 118.825,72.565 C127.052,80.701 127.052,93.892 118.825,102.031 ZM115.688,75.665 C109.436,69.480 99.379,69.263 92.797,75.178 L89.814,77.857 L86.833,75.178 C80.250,69.263 70.196,69.480 63.942,75.665 C57.454,82.079 57.454,92.515 63.942,98.929 L88.248,122.966 C89.109,123.822 90.518,123.822 91.381,122.966 L115.688,98.929 C122.175,92.515 122.175,82.079 115.688,75.665 ZM74.974,79.674 L74.972,79.674 C71.027,79.674 67.827,82.870 67.827,86.811 L67.827,86.813 C67.827,87.420 67.335,87.912 66.727,87.912 C66.119,87.912 65.628,87.420 65.628,86.813 C65.628,81.660 69.809,77.484 74.965,77.480 C74.970,77.480 74.970,77.477 74.974,77.477 C75.582,77.477 76.073,77.968 76.073,78.576 C76.073,79.183 75.582,79.674 74.974,79.674 Z" class="cls-2"/>
  </g>
</svg>
