<?xml-stylesheet type="text/css" href="/../../../build/css/style.css"?>
<svg xmlns="http://www.w3.org/2000/svg" xmlns:xlink="http://www.w3.org/1999/xlink" preserveAspectRatio="xMidYMid" width="180" height="194" viewBox="0 0 180 194">
  <defs>
    <style>
      .feature-cls-1 {
        fill: #fff;
        stroke: #a957a5;
        stroke-linejoin: round;
        stroke-width: 4px;
        fill-opacity: 0.1;
      }

      .feature-cls-1, .feature-cls-2 {
        fill-rule: evenodd;
      }

      .feature-cls-2 {
        fill: #9f449b;
      }
    </style>
  </defs>
  <g>
    <path fill="black" d="m69.767998,185.757004c-13.487999,-8.102005 -27.112,-15.968002 -40.872,-23.598007c-13.76,-7.62999 -20.504,-19.309998 -20.232,-35.042999c0.273002,-15.730995 0.273002,-31.462997 0,-47.194c-0.271998,-15.731995 6.472,-27.412998 20.232,-35.042995c13.76,-7.630001 27.384001,-15.495001 40.872,-23.597002c13.487999,-8.103 26.976006,-8.103 40.464005,0c13.486992,8.102001 27.111,15.967001 40.872002,23.597002c13.759995,7.629997 20.503998,19.311001 20.231995,35.042995c-0.272995,15.731003 -0.272995,31.463005 0,47.194c0.272003,15.733002 -6.472,27.41301 -20.231995,35.042999c-13.761002,7.630005 -27.38501,15.496002 -40.872002,23.598007c-13.487999,8.100998 -26.976006,8.100998 -40.464005,0z" class="feature-cls-1" id="svg_6"/>
    <path fill="black" d="m119.010498,103.030998c-0.265999,0.264 -24.306,24.037003 -24.306,24.037003c-2.600998,2.571999 -6.807999,2.571999 -9.408997,0c0,0 -21.954002,-21.710999 -24.306,-24.037003c-8.227005,-8.139 -8.227005,-21.330002 0,-29.465996c7.985001,-7.898003 20.740997,-8.064003 29.010002,-0.633003c8.269997,-7.431 21.028999,-7.264999 29.010994,0.633003c8.227005,8.135994 8.227005,21.326996 0,29.465996zm-3.136993,-26.365997c-6.252007,-6.184998 -16.309006,-6.402 -22.891006,-0.487l-2.982994,2.679001l-2.981003,-2.679001c-6.583,-5.915001 -16.637009,-5.697998 -22.890999,0.487c-6.488007,6.414001 -6.488007,16.849998 0,23.264l24.306,24.037003c0.861,0.855995 2.269997,0.855995 3.132996,0l24.307007,-24.037003c6.487,-6.414001 6.487,-16.849998 0,-23.264zm-40.714005,4.009003l-0.001999,0c-3.945,0 -7.144997,3.195999 -7.144997,7.136993l0,0.002007c0,0.606995 -0.492012,1.098999 -1.100006,1.098999c-0.607994,0 -1.098999,-0.492004 -1.098999,-1.098999c0,-5.153 4.181,-9.329002 9.336998,-9.333c0.005005,0 0.005005,-0.003006 0.009003,-0.003006c0.608002,0 1.098999,0.491005 1.098999,1.098999c0,0.607002 -0.490997,1.098007 -1.098999,1.098007z" class="feature-cls-2" id="svg_7"/>
  </g>
</svg>
