<svg xmlns="http://www.w3.org/2000/svg" xmlns:xlink="http://www.w3.org/1999/xlink" preserveAspectRatio="xMidYMid" width="180" height="194" viewBox="0 0 180 194">
  <defs>
    <style>
      .cls-1 {
        fill: #fff;
        stroke: #ccd0d2;
        stroke-linejoin: round;
        stroke-width: 4px;
        fill-opacity: 0.1;
      }

      .cls-1, .cls-2 {
        fill-rule: evenodd;
      }

      .cls-2 {
        fill: #d1d5d7;
      }
    </style>
  </defs>
  <g>
    <path d="M76.238,185.757 C62.750,177.655 49.126,169.789 35.366,162.159 C21.606,154.529 14.862,142.849 15.134,127.116 C15.407,111.385 15.407,95.653 15.134,79.922 C14.862,64.190 21.606,52.509 35.366,44.879 C49.126,37.249 62.750,29.384 76.238,21.282 C89.726,13.179 103.214,13.179 116.702,21.282 C130.189,29.384 143.814,37.249 157.574,44.879 C171.334,52.509 178.078,64.190 177.806,79.922 C177.533,95.653 177.533,111.385 177.806,127.116 C178.078,142.849 171.334,154.529 157.574,162.159 C143.814,169.789 130.189,177.655 116.702,185.757 C103.214,193.858 89.726,193.858 76.238,185.757 Z" class="cls-1"/>
    <path d="M105.345,128.998 L73.897,129.001 C70.639,129.001 68.000,126.362 68.000,123.104 L68.000,72.000 C68.000,68.743 70.639,66.104 73.897,66.104 L105.345,66.102 C108.602,66.102 111.241,68.742 111.241,71.998 L111.241,123.102 C111.241,126.359 108.602,128.998 105.345,128.998 ZM107.310,71.998 C107.310,70.914 106.429,70.033 105.345,70.033 L73.897,70.035 C72.812,70.035 71.931,70.915 71.931,72.000 L71.931,75.931 L107.310,75.929 L107.310,71.998 ZM107.310,77.895 L71.931,77.897 L71.931,117.200 L107.310,117.197 L107.310,77.895 ZM107.310,119.163 L71.931,119.165 L71.931,123.104 C71.931,124.188 72.812,125.069 73.897,125.069 L105.345,125.067 C106.429,125.067 107.310,124.187 107.310,123.102 L107.310,119.163 ZM90.603,123.095 L88.638,123.095 C88.095,123.095 87.655,122.655 87.655,122.111 C87.655,121.568 88.095,121.129 88.638,121.129 L90.603,121.129 C91.147,121.129 91.586,121.568 91.586,122.111 C91.586,122.655 91.147,123.095 90.603,123.095 ZM86.672,71.998 L92.569,71.998 C93.112,71.998 93.552,72.438 93.552,72.981 C93.552,73.524 93.112,73.964 92.569,73.964 L86.672,73.964 C86.129,73.964 85.690,73.524 85.690,72.981 C85.690,72.438 86.129,71.998 86.672,71.998 Z" class="cls-2"/>
  </g>
</svg>
