<?xml-stylesheet type="text/css" href="/../../../build/css/style.css"?>
<svg xmlns="http://www.w3.org/2000/svg" xmlns:xlink="http://www.w3.org/1999/xlink" preserveAspectRatio="xMidYMid" width="180" height="194" viewBox="0 0 180 194">
  <defs>
    <style>
      .feature-cls-1 {
        fill: #fff;
        stroke: #ccd0d2;
        stroke-linejoin: round;
        stroke-width: 4px;
        fill-opacity: 0.1;
      }

      .feature-cls-2 {
        fill-rule: evenodd;
      }

      .feature-cls-2 {
        fill: #d1d5d7;
      }
    </style>
  </defs>
  <g>
    <path fill="black" d="m69.767998,184.757004c-13.487999,-8.102005 -27.112,-15.968002 -40.871998,-23.598007c-13.76,-7.62999 -20.504002,-19.309998 -20.232,-35.042999c0.273001,-15.730995 0.273001,-31.462997 0,-47.194c-0.271999,-15.731995 6.472002,-27.412998 20.232,-35.042995c13.759998,-7.630001 27.383999,-15.494999 40.871998,-23.597002c13.487999,-8.102999 26.975998,-8.102999 40.464005,0c13.486992,8.102003 27.111992,15.967001 40.872002,23.597002c13.759995,7.629997 20.503998,19.311001 20.231995,35.042995c-0.272995,15.731003 -0.272995,31.463005 0,47.194c0.272003,15.733002 -6.472,27.41301 -20.231995,35.042999c-13.76001,7.630005 -27.38501,15.496002 -40.872002,23.598007c-13.488007,8.100998 -26.976006,8.100998 -40.464005,0z" class="feature-cls-1" id="svg_8"/>
    <path fill="black" d="m105.724503,126.998001l-31.447998,0.003006c-3.258003,0 -5.897003,-2.639008 -5.897003,-5.897003l0,-51.104004c0,-3.257004 2.639,-5.896004 5.897003,-5.896004l31.447998,-0.001999c3.256996,0 5.895996,2.639999 5.895996,5.896004l0,51.104004c0,3.257004 -2.639,5.895996 -5.895996,5.895996zm1.964996,-57c0,-1.084 -0.880997,-1.965004 -1.964996,-1.965004l-31.447998,0.002007c-1.085007,0 -1.966003,0.879997 -1.966003,1.964996l0,3.931l35.378998,-0.001999l0,-3.931zm0,5.896996l-35.378998,0.002007l0,39.302994l35.378998,-0.002998l0,-39.302002zm0,41.267998l-35.378998,0.001999l0,3.939011c0,1.084 0.880997,1.964996 1.966003,1.964996l31.447998,-0.001999c1.084,0 1.964996,-0.880005 1.964996,-1.964996l0,-3.939011zm-16.707001,3.932007l-1.964996,0c-0.542999,0 -0.983002,-0.440002 -0.983002,-0.984009c0,-0.542984 0.440002,-0.981995 0.983002,-0.981995l1.964996,0c0.544006,0 0.983002,0.439011 0.983002,0.981995c0,0.544006 -0.438995,0.984009 -0.983002,0.984009zm-3.931,-51.097l5.897003,0c0.542999,0 0.983002,0.440002 0.983002,0.983002c0,0.542999 -0.440002,0.982994 -0.983002,0.982994l-5.897003,0c-0.542999,0 -0.981995,-0.439995 -0.981995,-0.982994c0,-0.542999 0.438995,-0.983002 0.981995,-0.983002z" class="feature-cls-2" id="svg_9"/>
  </g>
</svg>
