<svg xmlns="http://www.w3.org/2000/svg" xmlns:xlink="http://www.w3.org/1999/xlink" preserveAspectRatio="xMidYMid" width="175" height="189" viewBox="0 0 175 189">
  <defs>
    <style>
      .cls-1, .cls-2 {
        fill: #fff;
        fill-rule: evenodd;
      }

      .cls-1 {
        stroke: #fff;
        stroke-linejoin: round;
        stroke-width: 4px;
        fill-opacity: 0.1;
      }
    </style>
  </defs>
  <g>
    <path d="M71.842,180.806 C58.428,172.748 44.879,164.926 31.194,157.337 C17.509,149.750 10.803,138.133 11.074,122.487 C11.345,106.842 11.345,91.197 11.074,75.551 C10.803,59.906 17.509,48.290 31.194,40.701 C44.879,33.113 58.428,25.290 71.842,17.233 C85.256,9.176 98.670,9.176 112.084,17.233 C125.497,25.290 139.047,33.113 152.732,40.701 C166.416,48.290 173.123,59.906 172.852,75.551 C172.581,91.197 172.581,106.842 172.852,122.487 C173.123,138.133 166.416,149.750 152.732,157.337 C139.047,164.926 125.497,172.748 112.084,180.806 C98.670,188.863 85.256,188.863 71.842,180.806 Z" class="cls-1"/>
    <path d="M112.624,81.916 L106.975,83.220 L106.975,101.092 C106.975,106.700 100.557,111.656 83.734,111.656 C66.912,111.656 60.494,106.700 60.494,101.092 L60.494,83.220 L54.842,81.916 C51.951,81.249 49.930,78.710 49.930,75.738 C49.930,72.767 51.951,70.227 54.844,69.561 L82.309,63.223 C82.798,63.113 83.268,63.062 83.734,63.062 C84.201,63.062 84.671,63.113 85.132,63.216 L112.627,69.561 C115.518,70.227 117.539,72.767 117.539,75.738 C117.539,78.710 115.518,81.249 112.624,81.916 ZM64.719,101.092 C64.719,103.428 71.058,107.430 83.734,107.430 C96.411,107.430 102.750,103.428 102.750,101.092 L102.750,84.196 L85.160,88.254 C84.671,88.363 84.201,88.415 83.734,88.415 C83.268,88.415 82.798,88.363 82.337,88.260 L64.719,84.196 L64.719,101.092 ZM111.676,73.679 L84.210,67.341 C84.053,67.306 83.894,67.287 83.734,67.287 C83.574,67.287 83.416,67.306 83.259,67.341 L55.793,73.679 C54.834,73.900 54.155,74.754 54.155,75.738 C54.155,76.722 54.834,77.577 55.793,77.798 L83.259,84.135 C83.416,84.171 83.574,84.190 83.734,84.190 C83.894,84.190 84.053,84.171 84.210,84.135 L111.676,77.798 C112.635,77.577 113.314,76.722 113.314,75.738 C113.314,74.754 112.635,73.900 111.676,73.679 ZM111.201,105.317 L111.201,86.302 C111.201,85.134 112.147,84.190 113.314,84.190 C114.480,84.190 115.427,85.134 115.427,86.302 L115.427,105.317 C115.427,106.485 114.480,107.430 113.314,107.430 C112.147,107.430 111.201,106.485 111.201,105.317 ZM113.314,109.543 C115.647,109.543 117.539,115.661 117.539,117.994 C117.539,120.328 115.647,122.220 113.314,122.220 C110.980,122.220 109.088,120.328 109.088,117.994 C109.088,115.661 110.980,109.543 113.314,109.543 Z" class="cls-2"/>
  </g>
</svg>
