<?xml-stylesheet type="text/css" href="/../../../build/css/style.css"?>
<svg xmlns="http://www.w3.org/2000/svg" xmlns:xlink="http://www.w3.org/1999/xlink" preserveAspectRatio="xMidYMid" width="175" height="189" viewBox="0 0 175 189">
  <defs>
    <style>
      .quote-cls-1, .quote-cls-2 {
        fill: #fff;
        fill-rule: evenodd;
      }

      .quote-cls-1 {
        stroke: #fff;
        stroke-linejoin: round;
        stroke-width: 4px;
        fill-opacity: 0.1;
      }
    </style>
  </defs>
  <g>
    <path d="m67.378998,180.806c-13.413998,-8.057999 -26.962997,-15.880005 -40.648001,-23.468994c-13.684999,-7.587006 -20.390999,-19.20401 -20.119999,-34.850006c0.271,-15.644997 0.271,-31.290001 0,-46.935997c-0.271,-15.645004 6.435,-27.261002 20.119999,-34.850002c13.685003,-7.588001 27.234003,-15.410999 40.648001,-23.468c13.413986,-8.057 26.827995,-8.057 40.241997,0c13.413002,8.057001 26.963005,15.879999 40.648003,23.468c13.684006,7.589001 20.391006,19.204998 20.12001,34.850002c-0.271011,15.645996 -0.271011,31.291 0,46.935997c0.271011,15.645996 -6.435989,27.263 -20.12001,34.850006c-13.684998,7.588989 -27.234993,15.411011 -40.648003,23.468994c-13.414001,8.057007 -26.828003,8.057007 -40.241997,0z" class="quote-cls-1" id="svg_3"/>
    <path d="m116.389503,81.916l-5.64901,1.304001l0,17.872002c0,5.607986 -6.417992,10.563995 -23.240997,10.563995c-16.821991,0 -23.239998,-4.956001 -23.239998,-10.563995l0,-17.872002l-5.652,-1.304001c-2.890999,-0.667 -4.911999,-3.206001 -4.911999,-6.178001c0,-2.971001 2.021,-5.511002 4.914001,-6.177002l27.465,-6.337997c0.488998,-0.110001 0.958992,-0.160999 1.424995,-0.160999c0.466995,0 0.936996,0.050999 1.39801,0.153999l27.494995,6.344997c2.890991,0.666 4.912003,3.206001 4.912003,6.177002c0,2.972 -2.021011,5.511002 -4.915001,6.178001zm-47.904999,19.176003c0,2.335999 6.338997,6.337997 19.014992,6.337997c12.677002,0 19.016006,-4.001999 19.016006,-6.337997l0,-16.896004l-17.589996,4.057999c-0.489014,0.109001 -0.959023,0.161003 -1.42601,0.161003c-0.466003,0 -0.935997,-0.052002 -1.397003,-0.154999l-17.617989,-4.064003l0,16.896004zm46.956993,-27.413002l-27.465996,-6.337997c-0.157005,-0.035004 -0.316002,-0.054001 -0.476006,-0.054001c-0.160004,0 -0.317993,0.018997 -0.474991,0.054001l-27.466007,6.337997c-0.959,0.221001 -1.638,1.074997 -1.638,2.058998c0,0.984001 0.679001,1.839005 1.638,2.059998l27.466007,6.337013c0.156998,0.036003 0.314987,0.055 0.474991,0.055c0.160004,0 0.319,-0.018997 0.476006,-0.055l27.465996,-6.337013c0.959007,-0.220985 1.638008,-1.075996 1.638008,-2.059998c0,-0.984001 -0.679001,-1.837997 -1.638008,-2.058998zm-0.475014,31.638l0,-19.014999c0,-1.167999 0.946022,-2.112 2.113022,-2.112c1.165993,0 2.112999,0.944 2.112999,2.112l0,19.014999c0,1.167999 -0.947006,2.112999 -2.112999,2.112999c-1.167,0 -2.113022,-0.945 -2.113022,-2.112999zm2.113022,4.225998c2.333,0 4.224998,6.118004 4.224998,8.451004c0,2.334 -1.891998,4.225998 -4.224998,4.225998c-2.334,0 -4.226021,-1.891998 -4.226021,-4.225998c0,-2.333 1.892021,-8.451004 4.226021,-8.451004z" class="quote-cls-2" id="svg_4"/>
  </g>
</svg>
