<?xml-stylesheet type="text/css" href="/../../../build/css/style.css"?>
<svg xmlns="http://www.w3.org/2000/svg" xmlns:xlink="http://www.w3.org/1999/xlink" preserveAspectRatio="xMidYMid" width="226.79" height="74.87" viewBox="0 0 226.79 74.87">
  <defs>
    <style>
      .about__button-cls-1 {
        fill: #6b2e68;
      }

      .about__button-cls-1, .about__button-cls-2 {
        fill-rule: evenodd;
      }

      .about__button-cls-2 {
        fill: #9f449b;
      }
    </style>
  </defs>
  <g>
    <path d="M5.016,4.007 L221.787,4.007 C224.549,4.007 226.787,6.245 226.787,9.007 L226.787,69.873 C226.787,72.634 224.549,74.873 221.787,74.873 L5.016,74.873 C2.255,74.873 0.016,72.634 0.016,69.873 L0.016,9.007 C0.016,6.245 2.255,4.007 5.016,4.007 Z" class="about__button-cls-1"/>
    <path d="M5.016,0.007 L221.787,0.007 C224.549,0.007 226.787,2.245 226.787,5.007 L226.787,65.873 C226.787,68.634 224.549,70.873 221.787,70.873 L5.016,70.873 C2.255,70.873 0.016,68.634 0.016,65.873 L0.016,5.007 C0.016,2.245 2.255,0.007 5.016,0.007 Z" class="about__button-cls-2"/>
  </g>
</svg>
