<svg xmlns="http://www.w3.org/2000/svg" xmlns:xlink="http://www.w3.org/1999/xlink" preserveAspectRatio="xMidYMid" width="175" height="189" viewBox="0 0 175 189">
  <defs>
    <style>
      .cls-1, .cls-2 {
        fill: #fff;
        fill-rule: evenodd;
      }

      .cls-1 {
        stroke: #fff;
        stroke-linejoin: round;
        stroke-width: 4px;
        fill-opacity: 0.1;
      }
    </style>
  </defs>
  <g>
    <path d="M71.842,180.807 C58.429,172.750 44.879,164.927 31.194,157.339 C17.510,149.751 10.803,138.134 11.074,122.489 C11.345,106.844 11.345,91.198 11.074,75.553 C10.803,59.907 17.510,48.291 31.194,40.703 C44.879,33.115 58.429,25.292 71.842,17.235 C85.256,9.177 98.670,9.177 112.084,17.235 C125.498,25.292 139.047,33.115 152.732,40.703 C166.417,48.291 173.123,59.907 172.852,75.553 C172.581,91.198 172.581,106.844 172.852,122.489 C173.123,138.134 166.417,149.751 152.732,157.339 C139.047,164.927 125.498,172.750 112.084,180.807 C98.670,188.864 85.256,188.864 71.842,180.807 Z" class="cls-1"/>
    <path d="M110.660,76.113 L105.248,77.196 C104.975,77.979 104.658,78.738 104.301,79.475 L107.365,84.071 C108.300,85.471 108.113,87.336 106.924,88.526 L103.527,91.924 C102.844,92.606 101.941,92.958 101.029,92.958 C100.351,92.958 99.670,92.763 99.071,92.365 L94.475,89.301 C93.740,89.656 92.981,89.975 92.199,90.247 L91.114,95.660 C90.785,97.312 89.335,98.499 87.652,98.499 L82.848,98.499 C81.165,98.499 79.715,97.312 79.386,95.660 L78.303,90.247 C77.520,89.975 76.762,89.657 76.025,89.301 L71.429,92.365 C70.832,92.763 70.149,92.958 69.471,92.958 C68.559,92.958 67.656,92.606 66.973,91.924 L63.576,88.526 C62.386,87.336 62.200,85.471 63.135,84.071 L66.199,79.475 C65.844,78.740 65.525,77.981 65.252,77.198 L59.840,76.113 C58.188,75.784 57.000,74.334 57.000,72.652 L57.000,67.847 C57.000,66.165 58.188,64.715 59.840,64.385 L65.252,63.303 C65.525,62.520 65.842,61.761 66.199,61.025 L63.135,56.428 C62.200,55.028 62.386,53.162 63.576,51.972 L66.973,48.576 C67.656,47.893 68.559,47.541 69.471,47.541 C70.149,47.541 70.830,47.736 71.429,48.134 L76.025,51.198 C76.760,50.843 77.518,50.524 78.301,50.252 L79.386,44.839 C79.715,43.187 81.165,41.999 82.848,41.999 L87.652,41.999 C89.335,41.999 90.785,43.187 91.114,44.839 L92.197,50.252 C92.980,50.524 93.738,50.842 94.475,51.198 L99.071,48.134 C99.668,47.736 100.351,47.541 101.029,47.541 C101.941,47.541 102.844,47.893 103.527,48.576 L106.924,51.972 C108.113,53.162 108.300,55.028 107.365,56.428 L104.301,61.025 C104.656,61.759 104.975,62.518 105.248,63.301 L110.660,64.385 C112.312,64.715 113.500,66.165 113.500,67.847 L113.500,72.652 C113.500,74.334 112.312,75.784 110.660,76.113 ZM109.967,67.847 L104.555,66.763 C103.329,66.518 102.323,65.642 101.913,64.461 C101.685,63.807 101.418,63.175 101.122,62.563 C100.578,61.437 100.670,60.107 101.363,59.066 L104.427,54.469 L101.030,51.072 L96.433,54.137 C95.844,54.529 95.161,54.730 94.475,54.730 C93.949,54.730 93.423,54.612 92.935,54.376 C92.321,54.078 91.688,53.814 91.036,53.586 C89.855,53.176 88.979,52.171 88.735,50.945 L87.652,45.531 L82.848,45.532 L81.764,50.945 C81.519,52.171 80.643,53.176 79.462,53.586 C78.808,53.814 78.175,54.081 77.563,54.378 C77.075,54.612 76.550,54.730 76.025,54.730 C75.339,54.730 74.656,54.529 74.066,54.137 L69.470,51.072 L66.073,54.469 L69.137,59.066 C69.832,60.107 69.923,61.438 69.377,62.565 C69.078,63.178 68.814,63.811 68.587,64.463 C68.176,65.644 67.171,66.520 65.945,66.764 L60.531,67.847 L60.533,72.652 L65.945,73.736 C67.171,73.981 68.176,74.856 68.587,76.038 C68.814,76.691 69.082,77.324 69.378,77.936 C69.922,79.062 69.830,80.391 69.137,81.433 L66.073,86.030 L69.470,89.427 L74.066,86.362 C74.656,85.970 75.339,85.769 76.025,85.769 C76.551,85.769 77.077,85.886 77.565,86.123 C78.179,86.421 78.812,86.685 79.463,86.913 C80.644,87.323 81.520,88.328 81.765,89.554 L82.848,94.968 L87.652,94.968 L88.736,89.554 C88.981,88.328 89.857,87.323 91.038,86.913 C91.692,86.685 92.324,86.418 92.937,86.121 C93.425,85.886 93.950,85.769 94.475,85.769 C95.161,85.769 95.844,85.970 96.433,86.362 L101.030,89.427 L104.427,86.030 L101.363,81.433 C100.668,80.391 100.577,79.060 101.123,77.934 C101.422,77.320 101.685,76.688 101.913,76.036 C102.323,74.855 103.329,73.979 104.555,73.734 L109.969,72.652 L109.967,67.847 ZM85.250,82.609 C78.425,82.609 72.891,77.074 72.891,70.250 C72.891,63.425 78.425,57.890 85.250,57.890 C92.074,57.890 97.609,63.425 97.609,70.250 C97.609,77.074 92.074,82.609 85.250,82.609 ZM85.250,59.435 C79.279,59.435 74.436,64.278 74.436,70.250 C74.436,76.221 79.279,81.064 85.250,81.064 C91.221,81.064 96.064,76.221 96.064,70.250 C96.064,64.278 91.221,59.435 85.250,59.435 ZM85.250,77.312 C81.348,77.312 78.187,74.151 78.187,70.250 C78.187,66.347 81.348,63.187 85.250,63.187 C89.152,63.187 92.312,66.347 92.312,70.250 C92.312,74.151 89.152,77.312 85.250,77.312 ZM85.250,64.952 C82.326,64.952 79.953,67.325 79.953,70.250 C79.953,73.174 82.326,75.546 85.250,75.546 C88.174,75.546 90.547,73.174 90.547,70.250 C90.547,67.325 88.174,64.952 85.250,64.952 Z" class="cls-2"/>
  </g>
</svg>
