<svg xmlns="http://www.w3.org/2000/svg" xmlns:xlink="http://www.w3.org/1999/xlink" preserveAspectRatio="xMidYMid" width="175" height="189" viewBox="0 0 175 189">
  <defs>
    <style>
      .cls-1, .cls-2 {
        fill: #fff;
        fill-rule: evenodd;
      }

      .cls-1 {
        stroke: #fff;
        stroke-linejoin: round;
        stroke-width: 4px;
        fill-opacity: 0.1;
      }
    </style>
  </defs>
  <g>
    <path d="m66.842003,175.807007c-13.413002,-8.057007 -26.963001,-15.87999 -40.648003,-23.468002c-13.684,-7.587997 -20.391,-19.205002 -20.12,-34.850006c0.271,-15.644997 0.271,-31.291 0,-46.935997c-0.271,-15.646 6.436,-27.262001 20.12,-34.850002c13.685001,-7.587997 27.235001,-15.410999 40.648003,-23.467999c13.413986,-8.058001 26.827995,-8.058001 40.241997,0c13.414001,8.056999 26.962997,15.880001 40.647995,23.467999c13.685013,7.588001 20.391006,19.204002 20.12001,34.850002c-0.271011,15.644997 -0.271011,31.291 0,46.935997c0.271011,15.645004 -6.434998,27.262009 -20.12001,34.850006c-13.684998,7.588013 -27.233994,15.411011 -40.647995,23.468002c-13.414001,8.056992 -26.828003,8.056992 -40.241997,0z" class="cls-1" id="svg_1"/>
    <path d="m111.660004,73.112999l-5.412003,1.083c-0.273003,0.782997 -0.590004,1.542 -0.946999,2.278999l3.063995,4.596001c0.935005,1.400002 0.748001,3.264999 -0.440994,4.455002l-3.397003,3.398003c-0.682999,0.681999 -1.585999,1.033997 -2.498001,1.033997c-0.678001,0 -1.359001,-0.195 -1.958,-0.593002l-4.596001,-3.063995c-0.735001,0.354996 -1.493996,0.673996 -2.276001,0.945999l-1.084999,5.413002c-0.328995,1.651993 -1.778999,2.838997 -3.461998,2.838997l-4.804001,0c-1.682999,0 -3.133003,-1.187004 -3.461998,-2.838997l-1.083,-5.413002c-0.783005,-0.272003 -1.541,-0.590004 -2.278,-0.945999l-4.596001,3.063995c-0.597,0.398003 -1.279999,0.593002 -1.958,0.593002c-0.912003,0 -1.815002,-0.351997 -2.498001,-1.033997l-3.397003,-3.398003c-1.189995,-1.190002 -1.375996,-3.055 -0.441002,-4.455002l3.064003,-4.596001c-0.354996,-0.735001 -0.673996,-1.493996 -0.946999,-2.277l-5.411999,-1.084999c-1.652,-0.329002 -2.84,-1.778999 -2.84,-3.460999l0,-4.805c0,-1.681999 1.188,-3.132004 2.84,-3.461998l5.411999,-1.082001c0.273003,-0.783001 0.590004,-1.542 0.946999,-2.278l-3.064003,-4.597c-0.934994,-1.400002 -0.748993,-3.266003 0.441002,-4.456001l3.397003,-3.396c0.682999,-0.682999 1.585999,-1.035 2.498001,-1.035c0.678001,0 1.359001,0.195 1.958,0.592999l4.596001,3.064003c0.735001,-0.355003 1.492996,-0.674004 2.276001,-0.946003l1.084999,-5.412998c0.328995,-1.652 1.778999,-2.84 3.461998,-2.84l4.804001,0c1.682999,0 3.133003,1.188 3.461998,2.84l1.083,5.412998c0.783005,0.271999 1.541,0.59 2.278,0.946003l4.596001,-3.064003c0.597,-0.397999 1.279999,-0.592999 1.958,-0.592999c0.912003,0 1.815002,0.352001 2.498001,1.035l3.397003,3.396c1.188995,1.189999 1.375999,3.056 0.440994,4.456001l-3.063995,4.597c0.354996,0.733997 0.673996,1.493 0.946999,2.275997l5.412003,1.084003c1.651993,0.329994 2.839996,1.779999 2.839996,3.461998l0,4.805c0,1.681999 -1.188004,3.131996 -2.839996,3.460999zm-0.693001,-8.265999l-5.412003,-1.084c-1.225998,-0.245003 -2.232002,-1.121002 -2.641998,-2.302002c-0.228004,-0.653999 -0.495003,-1.285999 -0.791,-1.897999c-0.543999,-1.125999 -0.452003,-2.456001 0.240997,-3.496998l3.064003,-4.597l-3.397003,-3.397003l-4.597,3.065002c-0.588997,0.391998 -1.271996,0.592999 -1.958,0.592999c-0.526001,0 -1.052002,-0.118 -1.540001,-0.354c-0.613998,-0.298 -1.246994,-0.562 -1.898994,-0.790001c-1.181,-0.41 -2.057007,-1.414997 -2.301003,-2.640999l-1.083,-5.414001l-4.804001,0.001003l-1.084,5.412998c-0.245003,1.226002 -1.121002,2.230999 -2.302002,2.640999c-0.653999,0.228001 -1.286995,0.495003 -1.898994,0.792c-0.488007,0.234001 -1.013,0.352001 -1.538002,0.352001c-0.686005,0 -1.369003,-0.201 -1.959,-0.592999l-4.596001,-3.065002l-3.397003,3.397003l3.064003,4.597c0.695,1.040997 0.785995,2.371998 0.239998,3.498997c-0.298996,0.613003 -0.562996,1.246002 -0.790001,1.897999c-0.410995,1.181 -1.416,2.056999 -2.641998,2.301003l-5.414001,1.083l0.002003,4.805l5.411999,1.084c1.225998,0.245003 2.231003,1.120003 2.641998,2.302002c0.227005,0.653 0.495003,1.285995 0.791,1.897995c0.543999,1.125999 0.452003,2.455002 -0.240997,3.497002l-3.064003,4.597l3.397003,3.397003l4.596001,-3.065002c0.589996,-0.391998 1.272995,-0.593002 1.959,-0.593002c0.526001,0 1.052002,0.117004 1.540001,0.354004c0.613998,0.297997 1.246994,0.561996 1.897995,0.790001c1.181,0.409996 2.056999,1.415001 2.302002,2.640999l1.083,5.414001l4.804001,0l1.084,-5.414001c0.245003,-1.225998 1.121002,-2.231003 2.302002,-2.640999c0.653999,-0.228004 1.285995,-0.495003 1.898994,-0.792c0.488007,-0.235001 1.013,-0.352005 1.538002,-0.352005c0.686005,0 1.369003,0.201004 1.958,0.593002l4.597,3.065002l3.397003,-3.397003l-3.064003,-4.597c-0.695,-1.042 -0.785995,-2.373001 -0.239998,-3.499001c0.298996,-0.613998 0.561996,-1.245995 0.790001,-1.897995c0.409996,-1.181 1.416,-2.057007 2.641998,-2.302002l5.414001,-1.082001l-0.001999,-4.805l0,0zm-24.717003,14.762001c-6.824997,0 -12.359001,-5.535004 -12.359001,-12.359001c0,-6.825001 5.534004,-12.360001 12.359001,-12.360001c6.823997,0 12.359001,5.535 12.359001,12.360001c0,6.823997 -5.535004,12.359001 -12.359001,12.359001zm0,-23.174c-5.971001,0 -10.814003,4.842999 -10.814003,10.814999c0,5.971001 4.843002,10.814003 10.814003,10.814003c5.971001,0 10.814003,-4.843002 10.814003,-10.814003c0,-5.972 -4.843002,-10.814999 -10.814003,-10.814999zm0,17.876995c-3.902,0 -7.063004,-3.160995 -7.063004,-7.061996c0,-3.903 3.161003,-7.063 7.063004,-7.063c3.902,0 7.061996,3.16 7.061996,7.063c0,3.901001 -3.159996,7.061996 -7.061996,7.061996zm0,-12.359993c-2.924004,0 -5.296997,2.372993 -5.296997,5.297997c0,2.924004 2.372993,5.295998 5.296997,5.295998c2.924004,0 5.296997,-2.371994 5.296997,-5.295998c0,-2.925003 -2.372993,-5.297997 -5.296997,-5.297997z" class="cls-2" id="svg_3"/>
  </g>
</svg>
