<svg xmlns="http://www.w3.org/2000/svg" xmlns:xlink="http://www.w3.org/1999/xlink" preserveAspectRatio="xMidYMid" width="175" height="189" viewBox="0 0 175 189">
  <defs>
    <style>
      .cls-1, .cls-2 {
        fill: #fff;
        fill-rule: evenodd;
      }

      .cls-1 {
        stroke: #fff;
        stroke-linejoin: round;
        stroke-width: 4px;
        fill-opacity: 0.1;
      }
    </style>
  </defs>
  <g>
    <path d="M71.843,180.807 C58.429,172.750 44.880,164.927 31.195,157.339 C17.510,149.751 10.803,138.134 11.074,122.489 C11.345,106.844 11.345,91.198 11.074,75.553 C10.803,59.907 17.510,48.291 31.195,40.703 C44.880,33.115 58.429,25.292 71.843,17.235 C85.257,9.177 98.670,9.177 112.084,17.235 C125.498,25.292 139.047,33.115 152.732,40.703 C166.417,48.291 173.124,59.907 172.853,75.553 C172.582,91.198 172.582,106.844 172.853,122.489 C173.124,138.134 166.417,149.751 152.732,157.339 C139.047,164.927 125.498,172.750 112.084,180.807 C98.670,188.864 85.257,188.864 71.843,180.807 Z" class="cls-1"/>
    <path d="M111.279,46.676 C108.297,43.699 104.373,41.999 100.502,41.999 C97.239,41.999 94.232,43.210 92.039,45.402 L83.217,54.290 C83.191,54.315 83.159,54.333 83.132,54.360 C83.118,54.374 83.109,54.393 83.095,54.407 L83.099,54.411 L64.376,73.276 C63.514,74.132 62.887,75.201 62.540,76.366 L58.283,91.786 C58.278,91.829 58.000,93.042 58.000,93.656 C58.000,97.159 60.844,99.999 64.353,99.999 C65.050,99.999 66.401,99.667 66.450,99.660 L81.816,95.620 C82.982,95.273 84.044,94.643 84.906,93.780 L112.570,65.898 C117.602,60.861 117.035,52.422 111.279,46.676 ZM87.026,85.130 C86.878,83.492 86.416,81.889 85.724,80.366 L102.859,63.232 C103.907,66.542 103.371,70.005 101.073,72.302 C101.059,72.317 101.042,72.325 101.028,72.339 L101.050,72.363 L87.044,86.480 C87.046,86.030 87.067,85.588 87.026,85.130 ZM84.814,78.713 C84.138,77.602 83.370,76.531 82.417,75.581 C81.309,74.473 80.038,73.606 78.713,72.876 L95.990,55.600 C97.344,56.202 98.645,57.059 99.792,58.206 C100.771,59.183 101.530,60.276 102.112,61.415 L84.814,78.713 ZM77.006,72.019 C75.328,71.343 73.569,70.957 71.808,70.934 L85.770,56.866 C87.906,54.781 91.020,54.181 94.085,54.942 L77.006,72.019 ZM65.555,96.145 C65.356,96.191 64.742,96.346 64.324,96.374 C62.834,96.359 61.625,95.146 61.625,93.656 C61.646,93.353 61.768,92.829 61.809,92.636 L63.717,85.722 C65.788,85.666 68.018,86.473 69.770,88.229 C71.551,90.007 72.388,92.281 72.296,94.374 L65.555,96.145 ZM74.084,93.904 C74.040,91.473 73.050,88.942 71.054,86.949 C69.165,85.057 66.694,83.967 64.229,83.869 L66.034,77.331 C66.165,76.895 66.424,76.467 66.742,76.090 C70.378,73.488 75.969,74.256 79.854,78.144 C83.963,82.252 84.598,88.267 81.433,91.861 C81.223,91.971 81.010,92.077 80.782,92.146 L74.084,93.904 ZM110.005,63.337 L106.952,66.413 C106.952,66.004 107.001,65.610 106.964,65.192 C106.646,61.686 105.008,58.294 102.355,55.643 C99.403,52.689 95.485,50.993 91.609,50.982 L94.613,47.956 C96.112,46.457 98.208,45.624 100.502,45.624 C103.421,45.624 106.415,46.944 108.718,49.241 C110.881,51.400 112.171,54.082 112.354,56.795 C112.524,59.328 111.690,61.650 110.005,63.337 Z" class="cls-2"/>
  </g>
</svg>
