<svg xmlns="http://www.w3.org/2000/svg" xmlns:xlink="http://www.w3.org/1999/xlink" preserveAspectRatio="xMidYMid" width="175" height="189" viewBox="0 0 175 189">
  <defs>
    <style>
      .cls-1, .cls-2 {
        fill: #fff;
        fill-rule: evenodd;
      }

      .cls-1 {
        stroke: #fff;
        stroke-linejoin: round;
        stroke-width: 4px;
        fill-opacity: 0.1;
      }
    </style>
  </defs>
  <g>
    <path d="m67.379501,176.807007c-13.413998,-8.057007 -26.962997,-15.880005 -40.648001,-23.468002c-13.684999,-7.587997 -20.391998,-19.205002 -20.120998,-34.850006c0.271,-15.644997 0.271,-31.291 0,-46.935997c-0.271,-15.646 6.436,-27.262001 20.120998,-34.850002c13.685003,-7.587997 27.234003,-15.410999 40.648001,-23.467999c13.414001,-8.058001 26.826996,-8.058001 40.240997,0c13.414001,8.056999 26.962997,15.880001 40.647995,23.467999c13.685013,7.588001 20.391998,19.204002 20.121002,34.850002c-0.270996,15.644997 -0.270996,31.291 0,46.935997c0.270996,15.645004 -6.435989,27.262009 -20.121002,34.850006c-13.684998,7.587997 -27.233994,15.410995 -40.647995,23.468002c-13.414001,8.056992 -26.826996,8.056992 -40.240997,0z" class="cls-1" id="svg_4"/>
  <path d="m112.628441,41.675999c-2.982002,-2.976997 -6.905998,-4.676998 -10.777,-4.676998c-3.263,0 -6.269997,1.210999 -8.462997,3.403l-8.821999,8.888c-0.026001,0.024998 -0.058006,0.042999 -0.084999,0.07c-0.014008,0.014 -0.023003,0.033001 -0.037003,0.047001l0.003998,0.003998l-18.723,18.865002c-0.862,0.856003 -1.488998,1.924995 -1.835995,3.089996l-4.257,15.420006c-0.005001,0.042999 -0.283001,1.255997 -0.283001,1.869995c0,3.502998 2.844002,6.343002 6.352993,6.343002c0.697006,0 2.048004,-0.332001 2.097,-0.338997l15.366005,-4.040001c1.166,-0.347 2.227997,-0.977005 3.089996,-1.840004l27.664001,-27.881996c5.031998,-5.037003 4.465004,-13.476002 -1.291,-19.222004zm-24.252998,38.453999c-0.148003,-1.638 -0.610001,-3.240997 -1.302002,-4.764l17.135002,-17.133999c1.047997,3.310001 0.512001,6.772999 -1.786003,9.070004c-0.014,0.014999 -0.030998,0.022995 -0.044998,0.036995l0.022003,0.024002l-14.006004,14.117004c0.001999,-0.450005 0.023003,-0.892006 -0.017998,-1.350006zm-2.211998,-6.417c-0.676003,-1.111 -1.444,-2.181999 -2.397003,-3.131996c-1.108002,-1.108002 -2.378998,-1.974998 -3.704002,-2.705002l17.277,-17.276001c1.354004,0.602001 2.654999,1.459 3.802002,2.606003c0.979004,0.976997 1.737999,2.07 2.32,3.209l-17.297997,17.297997zm-7.808006,-6.694c-1.677994,-0.675995 -3.436996,-1.061996 -5.197998,-1.084999l13.961998,-14.067997c2.136002,-2.085003 5.25,-2.685001 8.315002,-1.924l-17.079002,17.076996zm-11.450996,24.125999c-0.198997,0.046005 -0.813004,0.201004 -1.231003,0.229004c-1.489998,-0.014999 -2.698994,-1.227997 -2.698994,-2.718002c0.021,-0.303001 0.143002,-0.826996 0.183998,-1.019997l1.908001,-6.914001c2.070999,-0.056 4.300995,0.750999 6.052994,2.506996c1.781006,1.778008 2.618004,4.052002 2.526001,6.145004l-6.740997,1.770996zm8.528999,-2.240997c-0.043999,-2.431 -1.033997,-4.961998 -3.029999,-6.955002c-1.889,-1.891998 -4.360001,-2.981995 -6.825005,-3.079994l1.805,-6.538002c0.131004,-0.436005 0.390007,-0.863998 0.708,-1.241005c3.636002,-2.601997 9.227005,-1.834 13.112,2.054001c4.109001,4.108002 4.744003,10.123001 1.579002,13.717003c-0.209999,0.110001 -0.422997,0.216003 -0.651001,0.285004l-6.697998,1.757996zm35.920998,-30.566998l-3.052994,3.076c0,-0.409004 0.048996,-0.803001 0.011993,-1.221001c-0.317993,-3.506001 -1.955994,-6.898003 -4.608994,-9.549c-2.952003,-2.954002 -6.870003,-4.650002 -10.746002,-4.661003l3.003998,-3.025997c1.499001,-1.499001 3.595001,-2.332001 5.889,-2.332001c2.918999,0 5.913002,1.32 8.216003,3.617001c2.162994,2.159 3.452995,4.841 3.635994,7.553997c0.170006,2.533001 -0.663994,4.855003 -2.348999,6.542004z" class="cls-2" id="svg_5"/>
    </g>
</svg>
