<svg xmlns="http://www.w3.org/2000/svg" xmlns:xlink="http://www.w3.org/1999/xlink" preserveAspectRatio="xMidYMid" width="175" height="189" viewBox="0 0 175 189">
  <defs>
    <style>
      .cls-1, .cls-2 {
        fill: #fff;
        fill-rule: evenodd;
      }

      .cls-1 {
        stroke: #fff;
        stroke-linejoin: round;
        stroke-width: 4px;
        fill-opacity: 0.1;
      }
    </style>
  </defs>
  <g>
    <path d="M71.843,180.807 C58.429,172.750 44.880,164.927 31.195,157.339 C17.510,149.751 10.803,138.134 11.074,122.489 C11.345,106.844 11.345,91.198 11.074,75.553 C10.803,59.907 17.510,48.291 31.195,40.703 C44.880,33.115 58.429,25.292 71.843,17.235 C85.257,9.177 98.670,9.177 112.084,17.235 C125.498,25.292 139.047,33.115 152.732,40.703 C166.417,48.291 173.124,59.907 172.853,75.553 C172.582,91.198 172.582,106.844 172.853,122.489 C173.124,138.134 166.417,149.751 152.732,157.339 C139.047,164.927 125.498,172.750 112.084,180.807 C98.670,188.864 85.257,188.864 71.843,180.807 Z" class="cls-1"/>
    <path d="M103.171,44.290 C102.872,44.095 102.529,43.999 102.187,43.999 C101.836,43.999 101.486,44.099 101.182,44.304 L46.807,80.554 C46.247,80.925 45.939,81.580 46.010,82.250 C46.079,82.918 46.515,83.495 47.139,83.743 L61.321,89.418 L67.988,101.086 C68.307,101.645 68.900,101.993 69.543,102.000 C69.550,102.000 69.555,102.000 69.562,102.000 C70.198,102.000 70.789,101.664 71.116,101.118 L74.881,94.842 L92.452,101.869 C92.668,101.957 92.896,102.000 93.124,102.000 C93.432,102.000 93.739,101.922 94.013,101.766 C94.491,101.497 94.822,101.026 94.912,100.484 L103.975,46.109 C104.093,45.398 103.778,44.683 103.171,44.290 ZM51.685,81.658 L93.689,53.653 L63.149,86.345 C62.988,86.250 62.845,86.122 62.668,86.052 L51.685,81.658 ZM64.468,87.620 C64.464,87.613 64.459,87.609 64.456,87.602 L98.789,50.853 L69.520,96.459 L64.468,87.620 ZM91.707,97.666 L76.226,91.475 C75.856,91.330 75.474,91.280 75.095,91.259 L98.934,54.305 L91.707,97.666 Z" class="cls-2"/>
  </g>
</svg>
