<svg xmlns="http://www.w3.org/2000/svg" xmlns:xlink="http://www.w3.org/1999/xlink" preserveAspectRatio="xMidYMid" width="175" height="189" viewBox="0 0 175 189">
  <defs>
    <style>
      .cls-1, .cls-2 {
        fill: #fff;
        fill-rule: evenodd;
      }

      .cls-1 {
        stroke: #fff;
        stroke-linejoin: round;
        stroke-width: 4px;
        fill-opacity: 0.1;
      }
    </style>
  </defs>
  <g>
    <path d="m67.379509,180.807007c-13.414001,-8.057007 -26.963001,-15.880005 -40.648003,-23.468002c-13.684999,-7.587997 -20.391998,-19.205002 -20.120998,-34.850006c0.271,-15.644997 0.271,-31.291 0,-46.935997c-0.271,-15.646 6.435999,-27.262001 20.120998,-34.850002c13.685001,-7.587997 27.234001,-15.410999 40.648003,-23.467999c13.414001,-8.058001 26.826996,-8.058001 40.240997,0c13.414001,8.056999 26.96299,15.880001 40.647987,23.467999c13.685028,7.588001 20.391998,19.204002 20.121002,34.850002c-0.270981,15.644997 -0.270981,31.291 0,46.935997c0.270996,15.645004 -6.435974,27.262009 -20.121002,34.850006c-13.684998,7.587997 -27.233986,15.410995 -40.647987,23.468002c-13.414001,8.056992 -26.826996,8.056992 -40.240997,0z" class="cls-1" id="svg_9"/>
    <path d="m115.68045,44.290001c-0.298996,-0.195 -0.641998,-0.291 -0.984001,-0.291c-0.350998,0 -0.700996,0.099998 -1.004997,0.305l-54.375,36.25c-0.559998,0.371002 -0.868,1.026001 -0.797001,1.695999c0.069,0.667999 0.505001,1.245003 1.129002,1.492996l14.181999,5.675003l6.667,11.667999c0.319,0.558998 0.912003,0.906998 1.555,0.914001c0.007004,0 0.012001,0 0.018997,0c0.636002,0 1.227005,-0.335999 1.554001,-0.882004l3.764999,-6.275993l17.571007,7.027c0.215996,0.087997 0.444,0.130997 0.671997,0.130997c0.307999,0 0.614998,-0.078003 0.889,-0.234001c0.477997,-0.268997 0.808998,-0.739998 0.899002,-1.281998l9.062996,-54.375c0.118004,-0.711002 -0.196999,-1.426003 -0.804001,-1.819zm-51.486,37.367996l42.004005,-28.004997l-30.540001,32.692001c-0.161003,-0.095001 -0.304001,-0.223 -0.481003,-0.292999l-10.983002,-4.394005zm12.783005,5.962006c-0.004005,-0.007004 -0.009003,-0.011002 -0.012001,-0.018005l34.333,-36.748997l-29.269005,45.605999l-5.051994,-8.838997zm27.238998,10.045998l-15.481003,-6.191002c-0.369995,-0.144997 -0.751999,-0.195 -1.130997,-0.215996l23.838997,-36.954002l-7.226997,43.361z" class="cls-2" id="svg_10"/>
    </g>
</svg>
