<svg xmlns="http://www.w3.org/2000/svg" xmlns:xlink="http://www.w3.org/1999/xlink" preserveAspectRatio="xMidYMid" width="175" height="189" viewBox="0 0 175 189">
  <defs>
    <style>
      .cls-1 {
        fill: #9f449b;
        stroke: #9f449b;
        stroke-linejoin: round;
        stroke-width: 4px;
      }

      .cls-1, .cls-3 {
        fill-rule: evenodd;
      }

      .cls-2 {
        opacity: 0.02;
      }

      .cls-3 {
        fill: #fff;
      }
    </style>
  </defs>
  <g>
    <path fill="black" id="svg_16" class="cls-1" d="m67.379501,180.807999c-13.413998,-8.057999 -26.962997,-15.880997 -40.648001,-23.468994c-13.684999,-7.587997 -20.391999,-19.20401 -20.120999,-34.850006c0.271,-15.644997 0.271,-31.290001 0,-46.935997c-0.271,-15.646 6.436,-27.262001 20.120999,-34.850002c13.685003,-7.589001 27.234003,-15.410999 40.648001,-23.467999c13.414001,-8.058001 26.826996,-8.058001 40.240997,0c13.414001,8.056999 26.962997,15.878998 40.647995,23.467999c13.685013,7.588001 20.391998,19.204002 20.121002,34.850002c-0.270996,15.645996 -0.270996,31.291 0,46.935997c0.270996,15.645996 -6.435989,27.262009 -20.121002,34.850006c-13.684998,7.587997 -27.233994,15.410995 -40.647995,23.468994c-13.414001,8.057007 -26.826996,8.057007 -40.240997,0z"/>
    <path fill="black" id="svg_18" class="cls-3" d="m105.725998,90.022003l-36.451996,0c-3.660004,0 -6.628002,-2.968002 -6.628002,-6.628006l0,-39.766998c0,-3.66 2.967999,-6.627998 6.628002,-6.627998l36.451996,0c3.660004,0 6.628006,2.967999 6.628006,6.627998l0,39.766998c0,3.660004 -2.968002,6.628006 -6.628006,6.628006zm3.313995,-46.395004c0,-1.827 -1.487,-3.313999 -3.313995,-3.313999l-36.451996,0c-1.827003,0 -3.313995,1.487 -3.313995,3.313999l0,39.766998c0,1.825005 1.486992,3.314003 3.313995,3.314003l36.451996,0c1.826996,0 3.313995,-1.488998 3.313995,-3.314003l0,-39.766998zm-4.970993,33.139l-33.138,0c-0.916,0 -1.656998,-0.739998 -1.656998,-1.656998l0,-29.825001c0,-0.916 0.740997,-1.657001 1.656998,-1.657001l33.138,0c0.916,0 1.656998,0.741001 1.656998,1.657001l0,29.825001c0,0.917 -0.740997,1.656998 -1.656998,1.656998zm-33.138,-1.656998l25.529999,0l-4.576004,-5.300003l-0.960999,-1.090996l-13.36599,-15.150002l-6.627007,7.621998l0,13.919003zm33.138,-29.825001l-33.138,0l0,13.398998l5.384995,-6.209999c0.315002,-0.357998 0.766998,-0.562 1.242012,-0.562c0.475998,0 0.927986,0.204002 1.242989,0.562l13.085999,14.831001l4.312012,-4.889999c0.314987,-0.357002 0.766998,-0.561001 1.242996,-0.561001c0.475006,0 0.927002,0.203999 1.242004,0.561001l5.384995,5.850998l0,-22.980999zm0,25.482998l-6.626999,-7.257l-4.451996,5.046001l5.679993,6.553001l5.399002,0l0,-4.342003zm-9.940994,-12.227997c-2.746002,0 -4.971008,-2.225002 -4.971008,-4.971001c0,-2.746002 2.225006,-4.971001 4.971008,-4.971001c2.745995,0 4.970993,2.224998 4.970993,4.971001c0,2.745998 -2.224998,4.971001 -4.970993,4.971001zm0,-8.285c-1.827011,0 -3.314011,1.487 -3.314011,3.313999c0,1.827 1.487,3.313999 3.314011,3.313999c1.826996,0 3.313995,-1.487 3.313995,-3.313999c0,-1.827 -1.487,-3.313999 -3.313995,-3.313999z"/> 
  </g>
</svg>
