<svg xmlns="http://www.w3.org/2000/svg" xmlns:xlink="http://www.w3.org/1999/xlink" preserveAspectRatio="xMidYMid" width="175" height="189" viewBox="0 0 175 189">
  <defs>
    <style>
      .cls-1, .cls-2 {
        fill: #fff;
        fill-rule: evenodd;
      }

      .cls-1 {
        stroke: #fff;
        stroke-linejoin: round;
        stroke-width: 4px;
        fill-opacity: 0.1;
      }
    </style>
  </defs>
  <g>
    <path d="M71.842,180.808 C58.428,172.750 44.879,164.927 31.194,157.339 C17.510,149.751 10.803,138.135 11.074,122.489 C11.345,106.844 11.345,91.199 11.074,75.553 C10.803,59.907 17.510,48.291 31.194,40.703 C44.879,33.114 58.428,25.292 71.842,17.235 C85.256,9.177 98.670,9.177 112.084,17.235 C125.498,25.292 139.047,33.114 152.732,40.703 C166.416,48.291 173.123,59.907 172.852,75.553 C172.581,91.199 172.581,106.844 172.852,122.489 C173.123,138.135 166.416,149.751 152.732,157.339 C139.047,164.927 125.498,172.750 112.084,180.808 C98.670,188.865 85.256,188.865 71.842,180.808 Z" class="cls-1"/>
    <path d="M85.513,82.769 C83.498,82.769 81.533,82.613 79.628,82.334 C78.324,83.923 72.709,89.398 66.750,90.374 C66.757,90.349 66.442,90.397 66.264,90.397 C65.308,90.397 64.535,89.624 64.535,88.670 C64.535,88.427 64.587,88.196 64.677,87.988 C64.677,87.988 64.675,87.988 64.673,87.988 C65.796,86.055 68.350,82.375 68.350,78.955 C68.350,78.899 68.364,78.866 68.364,78.814 C60.300,74.694 55.000,67.755 55.000,59.884 C55.000,47.246 68.660,36.999 85.513,36.999 C102.364,36.999 116.027,47.246 116.027,59.884 C116.027,72.523 102.364,82.769 85.513,82.769 ZM85.513,40.814 C70.791,40.814 58.814,49.369 58.814,59.884 C58.814,66.001 63.032,71.807 70.100,75.416 C71.376,76.069 72.179,77.382 72.179,78.814 C72.179,78.920 72.173,79.043 72.162,79.166 C72.123,81.136 71.540,83.051 70.797,84.756 C73.542,83.123 75.864,80.908 76.680,79.914 C77.410,79.024 78.496,78.519 79.628,78.519 C79.811,78.519 79.997,78.533 80.181,78.561 C81.971,78.823 83.764,78.955 85.513,78.955 C100.235,78.955 112.212,70.400 112.212,59.884 C112.212,49.369 100.235,40.814 85.513,40.814 ZM85.513,48.442 C75.354,48.442 66.442,53.789 66.442,59.884 C66.442,60.412 66.016,60.838 65.489,60.838 C64.962,60.838 64.535,60.412 64.535,59.884 C64.535,52.649 74.142,46.535 85.513,46.535 C86.040,46.535 86.467,46.961 86.467,47.488 C86.467,48.016 86.040,48.442 85.513,48.442 Z" class="cls-2"/>
  </g>
</svg>
