<svg xmlns="http://www.w3.org/2000/svg" xmlns:xlink="http://www.w3.org/1999/xlink" preserveAspectRatio="xMidYMid" width="175" height="189" viewBox="0 0 175 189">
  <defs>
    <style>
      .cls-1, .cls-2 {
        fill: #fff;
        fill-rule: evenodd;
      }

      .cls-1 {
        stroke: #fff;
        stroke-linejoin: round;
        stroke-width: 4px;
        fill-opacity: 0.1;
      }
    </style>
  </defs>
  <g>
    <path d="m67.378998,180.807007c-13.413002,-8.057007 -26.963001,-15.880005 -40.648003,-23.468002c-13.684,-7.587997 -20.391001,-19.205002 -20.120001,-34.850006c0.271,-15.644997 0.271,-31.291 0,-46.935997c-0.271,-15.646 6.436,-27.262001 20.120001,-34.850002c13.685001,-7.587997 27.235001,-15.410999 40.648003,-23.467999c13.413994,-8.058001 26.827995,-8.058001 40.241997,0c13.414001,8.056999 26.963005,15.880001 40.648003,23.467999c13.685013,7.588001 20.391006,19.204002 20.12001,34.850002c-0.271011,15.644997 -0.271011,31.291 0,46.935997c0.270996,15.645004 -6.434998,27.262009 -20.12001,34.850006c-13.684998,7.587997 -27.234001,15.410995 -40.648003,23.468002c-13.414001,8.056992 -26.828003,8.056992 -40.241997,0z" class="cls-1" id="svg_7" fill="black"/>
    <path d="m113.441002,92.586998c-0.349998,-0.231995 -6.733002,-4.418999 -16.226006,-6.471001c3.482002,-4.415001 5.718002,-10.348 6.668007,-14.297997c1.317993,-5.473999 0.806999,-16.184006 -4.450005,-22.857002c-3.072998,-3.900997 -7.373001,-5.961998 -12.432999,-5.961998c-5.059998,0 -9.360001,2.061001 -12.432999,5.961998c-5.257004,6.672997 -5.767998,17.383003 -4.450005,22.857002c0.950005,3.949997 3.185005,9.882996 6.668007,14.297997c-9.493004,2.052002 -15.876003,6.239006 -16.226006,6.471001c-1.283997,0.856003 -1.855999,2.451004 -1.408997,3.926003c0.445999,1.476997 1.807999,2.487 3.349995,2.487l49.000004,0c1.542,0 2.903999,-1.010002 3.349998,-2.487c0.446999,-1.474998 -0.125,-3.07 -1.408997,-3.926003zm-18.973999,-8.639999l-0.573006,0.725998c-4.172997,4.794006 -9.614998,4.794006 -13.787994,0l-0.573006,-0.725998c-4.874001,-6.177002 -7.292,-14.344002 -6.250999,-22.136997c0.955002,-7.489002 5.247002,-15.311001 13.718002,-15.311001c8.471001,0 12.763,7.821999 13.718002,15.311001c1.035995,7.796001 -1.374001,15.958996 -6.250999,22.136997zm-31.967003,11.552002c0.241001,-0.160004 6.170998,-4.048004 15.025002,-5.961998l4.348,-0.942001c1.549995,1.020996 3.253998,1.653999 5.126999,1.653999c1.873001,0 3.577003,-0.633003 5.126999,-1.653999l4.348,0.942001c8.785004,1.897995 14.693001,5.743996 15.025002,5.961998l-49,0z" class="cls-2" id="svg_8"/>
  </g>
</svg>
